<svg width="119" height="13" viewBox="0 0 119 13" fill="none" xmlns="http://www.w3.org/2000/svg">
<path d="M11.544 0.927999V12H10.088V3.744L6.408 12H5.384L1.688 3.728V12H0.232V0.927999H1.8L5.896 10.08L9.992 0.927999H11.544ZM15.4693 0.848V12H14.0133V0.848H15.4693ZM26.7188 12H25.2628L19.4068 3.12V12H17.9508V0.832H19.4068L25.2628 9.696V0.832H26.7188V12ZM37.7928 0.848V12H36.3368V6.944H30.6568V12H29.2008V0.848H30.6568V5.744H36.3368V0.848H37.7928ZM46.8709 9.52H42.0069L41.1109 12H39.5749L43.6069 0.912H45.2869L49.3029 12H47.7669L46.8709 9.52ZM46.4549 8.336L44.4389 2.704L42.4229 8.336H46.4549ZM56.7818 2.032V5.76H60.8458V6.96H56.7818V10.8H61.3258V12H55.3258V0.832H61.3258V2.032H56.7818ZM67.0649 12.112C66.3289 12.112 65.6675 11.984 65.0809 11.728C64.5049 11.4613 64.0515 11.0987 63.7209 10.64C63.3902 10.1707 63.2195 9.632 63.2089 9.024H64.7609C64.8142 9.54667 65.0275 9.98933 65.4009 10.352C65.7849 10.704 66.3395 10.88 67.0649 10.88C67.7582 10.88 68.3022 10.7093 68.6969 10.368C69.1022 10.016 69.3049 9.568 69.3049 9.024C69.3049 8.59733 69.1875 8.25067 68.9529 7.984C68.7182 7.71733 68.4249 7.51467 68.0729 7.376C67.7209 7.23733 67.2462 7.088 66.6489 6.928C65.9129 6.736 65.3209 6.544 64.8729 6.352C64.4355 6.16 64.0569 5.86133 63.7369 5.456C63.4275 5.04 63.2729 4.48533 63.2729 3.792C63.2729 3.184 63.4275 2.64533 63.7369 2.176C64.0462 1.70667 64.4782 1.344 65.0329 1.088C65.5982 0.831999 66.2435 0.704 66.9689 0.704C68.0142 0.704 68.8675 0.965333 69.5289 1.488C70.2009 2.01067 70.5795 2.704 70.6649 3.568H69.0649C69.0115 3.14133 68.7875 2.768 68.3929 2.448C67.9982 2.11733 67.4755 1.952 66.8249 1.952C66.2169 1.952 65.7209 2.112 65.3369 2.432C64.9529 2.74133 64.7609 3.17867 64.7609 3.744C64.7609 4.14933 64.8729 4.48 65.0969 4.736C65.3315 4.992 65.6142 5.18933 65.9449 5.328C66.2862 5.456 66.7609 5.60533 67.3689 5.776C68.1049 5.97867 68.6969 6.18133 69.1449 6.384C69.5929 6.576 69.9769 6.88 70.2969 7.296C70.6169 7.70133 70.7769 8.256 70.7769 8.96C70.7769 9.504 70.6329 10.016 70.3449 10.496C70.0569 10.976 69.6302 11.3653 69.0649 11.664C68.4995 11.9627 67.8329 12.112 67.0649 12.112ZM79.7835 0.848V2.032H76.7435V12H75.2875V2.032H72.2315V0.848H79.7835ZM88.1678 9.52H83.3038L82.4078 12H80.8717L84.9038 0.912H86.5838L90.5998 12H89.0638L88.1678 9.52ZM87.7518 8.336L85.7358 2.704L83.7198 8.336H87.7518ZM101.125 12H99.669L93.813 3.12V12H92.357V0.832H93.813L99.669 9.696V0.832H101.125V12ZM110.471 0.848V2.032H107.431V12H105.975V2.032H102.919V0.848H110.471ZM113.719 2.032V5.76H117.783V6.96H113.719V10.8H118.263V12H112.263V0.832H118.263V2.032H113.719Z" fill="black"/>
</svg>
